<svg class="transition-transform duration-300 hover:scale-105" fill="none" height="45" viewbox="0 0 132 49" width="130" xmlns="http://www.w3.org/2000/svg"><g clip-path="url(#clip0_314_6377)" filter="url(#filter0_d_314_6377)"><path d="M35.1544 11.5186H24.9712C24.5961 11.5186 24.2919 11.8227 24.2919 12.1978V22.2056C24.2919 22.5807 24.5961 22.8848 24.9712 22.8848H35.1544C35.5295 22.8848 35.8336 22.5807 35.8336 22.2056V12.1978C35.8336 11.8227 35.5295 11.5186 35.1544 11.5186Z" fill="#169995"></path><path d="M35.8105 34.5552C35.8234 34.5552 35.8339 34.5656 35.8339 34.5785V45.7453C35.8339 45.7603 35.8218 45.7724 35.8068 45.7724C32.8052 45.7736 29.8327 45.1832 27.0593 44.0351C24.286 42.887 21.7661 41.2036 19.6436 39.0811C17.5211 36.9586 15.8377 34.4387 14.6896 31.6653C13.5414 28.8919 12.9511 25.9195 12.9523 22.9179C12.9523 22.8996 12.9671 22.8848 12.9854 22.8848H24.1401C24.2241 22.8848 24.2922 22.9528 24.2922 23.0368C24.2922 26.0917 25.5058 29.0214 27.6659 31.1815C29.826 33.3416 32.7557 34.5551 35.8105 34.5552Z" fill="#0D47A1"></path><path d="M23.534 0C23.909 0 24.2142 0.304059 24.2032 0.678964C24.1769 1.57814 24.0977 2.47519 23.9661 3.36547C23.5427 6.24143 22.5706 9.00924 21.1027 11.5184C19.0904 14.9694 16.2081 17.8324 12.7436 19.8216C9.47553 21.698 5.79718 22.7349 2.03736 22.8448C1.66251 22.8557 1.35851 22.5506 1.35851 22.1756V12.1976C1.35851 11.8225 1.66296 11.5204 2.03745 11.4983C4.84469 11.3327 7.50366 10.1442 9.50319 8.14469C11.5027 6.14516 12.6912 3.48618 12.8568 0.678944C12.8789 0.304456 13.181 0 13.5561 0H23.534Z" fill="#0D47A1"></path><path d="M54.0735 7.65436L52.7264 8.98346L51.1279 7.40291L52.7085 5.82236L54.0735 7.15146L55.4206 5.82236L57.0191 7.40291L55.4385 8.98346L54.0735 7.65436ZM61.0603 14.8207C61.18 14.8207 61.2399 14.8806 61.2399 15.0003V16.6887C61.2399 16.8204 61.18 16.8862 61.0603 16.8862C60.1024 16.8862 59.1744 16.533 58.2763 15.8265C57.7495 16.4252 57.055 16.7665 56.1929 16.8503C56.1689 16.8743 56.139 16.8862 56.1031 16.8862H51.4871C49.9186 16.8862 48.7212 16.515 47.895 15.7727C47.0808 15.0303 46.6736 13.9466 46.6736 12.5217C46.6736 11.6955 46.8233 10.5161 47.1227 8.98346L48.9726 9.2888C48.7332 10.5221 48.6134 11.48 48.6134 12.1625C48.6134 13.1444 48.8529 13.8329 49.3318 14.228C49.8228 14.6232 50.6729 14.8207 51.8823 14.8207H55.672C56.4743 14.8207 57.0131 14.5214 57.2885 13.9227C57.5639 13.312 57.7016 12.0847 57.7016 10.2407H59.5336C59.5336 11.9889 59.372 13.3719 59.0487 14.3897C59.6354 14.677 60.3059 14.8207 61.0603 14.8207ZM65.5155 7.42087L63.935 9.00142L62.3365 7.42087L63.917 5.84032L65.5155 7.42087ZM66.4495 14.8207C66.5692 14.8207 66.6291 14.8806 66.6291 15.0003V16.6887C66.6291 16.8204 66.5692 16.8862 66.4495 16.8862C65.4916 16.8862 64.5636 16.533 63.6656 15.8265C63.031 16.533 62.1629 16.8862 61.0613 16.8862C60.9415 16.8862 60.8816 16.8204 60.8816 16.6887V15.0003C60.8816 14.8806 60.9415 14.8207 61.0613 14.8207C61.8635 14.8207 62.4023 14.5214 62.6777 13.9227C62.9531 13.312 63.0908 12.0847 63.0908 10.2407H64.9228C64.9228 11.9889 64.7612 13.3719 64.4379 14.3897C65.0246 14.677 65.6951 14.8207 66.4495 14.8207ZM73.0915 14.8207C73.2112 14.8207 73.2711 14.8806 73.2711 15.0003V16.6887C73.2711 16.8204 73.2112 16.8862 73.0915 16.8862C72.0019 16.8862 70.9242 16.4372 69.8586 15.5392C69.176 16.4372 68.0385 16.8862 66.446 16.8862C66.3263 16.8862 66.2664 16.8204 66.2664 16.6887V15.0003C66.2664 14.8806 66.3263 14.8207 66.446 14.8207C67.5236 14.8207 68.2361 14.5334 68.5833 13.9586C68.7869 13.6233 68.9126 13.1863 68.9605 12.6475C69.0204 12.0967 69.0503 11.2944 69.0503 10.2407H70.8823C70.8823 11.941 70.7686 13.2282 70.5411 14.1023C71.3792 14.5813 72.2294 14.8207 73.0915 14.8207ZM69.4275 19.4007L70.7746 18.0716L72.3731 19.6522L70.7925 21.2328L69.4275 19.9037L68.0804 21.2328L66.4819 19.6522L68.0625 18.0716L69.4275 19.4007ZM79.5415 5.53498L77.961 7.11554L76.3625 5.53498L77.943 3.95443L79.5415 5.53498ZM82.6847 14.8207C82.8044 14.8207 82.8643 14.8806 82.8643 15.0003V16.6887C82.8643 16.8204 82.8044 16.8862 82.6847 16.8862C81.2598 16.8862 79.7331 16.6647 78.1047 16.2217C76.596 16.6647 74.9256 16.8862 73.0936 16.8862C72.9739 16.8623 72.914 16.7964 72.914 16.6887V15.0003C72.914 14.8806 72.9739 14.8207 73.0936 14.8207C73.824 14.8207 74.4886 14.7908 75.0873 14.7309C74.285 13.9885 73.8839 13.1025 73.8839 12.0727C73.8839 10.9711 74.267 10.0192 75.0334 9.21695C75.8117 8.40273 76.7696 7.99562 77.9071 7.99562C79.0446 7.99562 79.9906 8.37878 80.7449 9.14511C81.4993 9.89947 81.8765 10.8753 81.8765 12.0727C81.8765 13.0067 81.4753 13.8868 80.6731 14.713C81.176 14.7848 81.8465 14.8207 82.6847 14.8207ZM77.8532 10.0791C77.2785 10.0791 76.7995 10.2766 76.4164 10.6718C76.0452 11.0669 75.8596 11.5818 75.8596 12.2164C75.8596 12.7792 76.0272 13.2821 76.3625 13.7251C76.6977 14.1562 77.1767 14.4795 77.7993 14.695C79.1883 14.3118 79.8828 13.5096 79.8828 12.2883C79.8828 11.6297 79.6972 11.0969 79.326 10.6897C78.9548 10.2826 78.4639 10.0791 77.8532 10.0791ZM82.6879 16.8862C82.5682 16.8862 82.5083 16.8204 82.5083 16.6887V15.0003C82.5083 14.8806 82.5682 14.8207 82.6879 14.8207H84.1248C84.8193 14.8207 85.3042 14.701 85.5796 14.4615C85.855 14.222 85.9927 13.8389 85.9927 13.312C85.9927 12.3421 85.8131 10.6299 85.4539 8.17523H87.4296C87.7888 10.6299 87.9684 12.39 87.9684 13.4557C87.9684 14.4974 87.6331 15.3296 86.9626 15.9523C86.304 16.5749 85.3581 16.8862 84.1248 16.8862H82.6879ZM88.2019 19.6342L86.6213 21.2148L85.2563 19.8857L83.9093 21.2148L82.3107 19.6342L83.8913 18.0537L85.2563 19.3828L86.6034 18.0537L88.2019 19.6342ZM92.2766 3.86463V16.8862H90.3009V3.86463H92.2766ZM113.596 14.8207C113.716 14.8207 113.776 14.8806 113.776 15.0003V16.6887C113.776 16.8204 113.716 16.8862 113.596 16.8862C112.159 16.8862 111.106 16.4612 110.435 15.611C109.166 16.4492 107.543 16.8743 105.568 16.8862H105.55H103.107C101.538 16.8862 100.341 16.515 99.5148 15.7727C98.7006 15.0303 98.2935 13.9466 98.2935 12.5217C98.2935 11.7075 98.3953 10.8394 98.5988 9.91743L100.449 10.2228C100.305 11.025 100.233 11.6716 100.233 12.1625C100.233 13.1444 100.473 13.8329 100.952 14.228C101.443 14.6232 102.293 14.8207 103.502 14.8207H105.406C107.346 14.8207 108.813 14.5813 109.806 14.1023C109.77 13.8868 109.753 13.6712 109.753 13.4557V3.86463H111.728V13.312C111.728 13.8389 111.866 14.222 112.141 14.4615C112.417 14.701 112.902 14.8207 113.596 14.8207ZM107.202 10.7257H104.831C104.256 10.7257 103.622 10.8274 102.927 11.031V9.46841C103.382 9.31275 103.718 9.21695 103.933 9.18103C103.67 8.88169 103.538 8.54043 103.538 8.15727C103.538 7.63041 103.724 7.18738 104.095 6.82816C104.466 6.46895 104.981 6.28934 105.639 6.28934C106.011 6.28934 106.454 6.41506 106.969 6.66652V8.17523C106.43 8.00759 105.999 7.92377 105.675 7.92377C105.448 7.92377 105.256 7.97766 105.101 8.08542C104.945 8.19319 104.867 8.33089 104.867 8.49852C104.867 8.90563 105.244 9.10919 105.999 9.10919H107.687L107.202 10.7257ZM120.239 14.8207C120.358 14.8207 120.418 14.8806 120.418 15.0003V16.6887C120.418 16.8204 120.358 16.8862 120.239 16.8862C119.149 16.8862 118.071 16.4372 117.006 15.5392C116.323 16.4372 115.186 16.8862 113.593 16.8862C113.473 16.8862 113.414 16.8204 113.414 16.6887V15.0003C113.414 14.8806 113.473 14.8207 113.593 14.8207C114.671 14.8207 115.383 14.5334 115.731 13.9586C115.934 13.6233 116.06 13.1863 116.108 12.6475C116.168 12.0967 116.197 11.2944 116.197 10.2407H118.03C118.03 11.941 117.916 13.2282 117.688 14.1023C118.526 14.5813 119.377 14.8207 120.239 14.8207ZM116.575 19.4007L117.922 18.0716L119.52 19.6522L117.94 21.2328L116.575 19.9037L115.228 21.2328L113.629 19.6522L115.21 18.0716L116.575 19.4007ZM123.779 5.69663L122.432 7.02573L120.833 5.44518L122.414 3.86463L123.779 5.19373L125.126 3.86463L126.725 5.44518L125.144 7.02573L123.779 5.69663ZM123.007 8.17523H124.982C125.342 10.6299 125.521 12.39 125.521 13.4557C125.521 14.4974 125.186 15.3296 124.515 15.9523C123.857 16.5749 122.911 16.8862 121.678 16.8862H120.241C120.121 16.8862 120.061 16.8204 120.061 16.6887V15.0003C120.061 14.8806 120.121 14.8207 120.241 14.8207H121.678C122.372 14.8207 122.857 14.701 123.132 14.4615C123.408 14.222 123.546 13.8389 123.546 13.312C123.546 12.3421 123.366 10.6299 123.007 8.17523Z" fill="white"></path><path d="M48.3548 27.5391H44.1752V25.596H54.8624V27.5391H50.6829V38.8862H48.3548V27.5391ZM60.1884 25.596V27.7957H58.007V25.596H60.1884ZM60.1884 29.2073V38.8862H58.007V29.2073H60.1884ZM73.1431 38.8862H70.4484L66.6538 34.3767V38.8862H64.4724V25.596H66.6538V33.6435L70.5034 29.2073H72.9964L68.9452 33.8451L73.1431 38.8862ZM80.0748 28.9873C81.5902 28.9873 82.7695 29.5128 83.6128 30.5638C84.4682 31.6026 84.8471 32.9591 84.7493 34.6333H77.5084C77.5328 35.4766 77.8017 36.1365 78.315 36.6131C78.8405 37.0775 79.4638 37.3097 80.1848 37.3097C81.4069 37.3097 82.2074 36.8453 82.5862 35.9165L84.5843 36.3198C84.2788 37.1631 83.7533 37.8413 83.0078 38.3546C82.2623 38.8679 81.3274 39.1245 80.2031 39.1245C78.6511 39.1245 77.4412 38.6357 76.5735 37.658C75.718 36.6681 75.2903 35.4399 75.2903 33.9734C75.2903 32.5069 75.7303 31.3093 76.6102 30.3805C77.5023 29.4517 78.6572 28.9873 80.0748 28.9873ZM77.5084 33.0385H82.5312C82.5068 32.3175 82.2623 31.7492 81.798 31.3337C81.3336 30.906 80.7592 30.6921 80.0748 30.6921C79.4393 30.6921 78.871 30.8876 78.37 31.2787C77.8689 31.6576 77.5817 32.2442 77.5084 33.0385ZM91.6621 36.0632L93.9169 29.2073H96.19L92.6337 38.8862H90.5805L86.9876 29.2073H89.389L91.6621 36.0632ZM103.192 28.9873C104.707 28.9873 105.886 29.5128 106.73 30.5638C107.585 31.6026 107.964 32.9591 107.866 34.6333H100.625C100.65 35.4766 100.919 36.1365 101.432 36.6131C101.957 37.0775 102.581 37.3097 103.302 37.3097C104.524 37.3097 105.324 36.8453 105.703 35.9165L107.701 36.3198C107.396 37.1631 106.87 37.8413 106.125 38.3546C105.379 38.8679 104.444 39.1245 103.32 39.1245C101.768 39.1245 100.558 38.6357 99.6904 37.658C98.8349 36.6681 98.4072 35.4399 98.4072 33.9734C98.4072 32.5069 98.8471 31.3093 99.7271 30.3805C100.619 29.4517 101.774 28.9873 103.192 28.9873ZM100.625 33.0385H105.648C105.624 32.3175 105.379 31.7492 104.915 31.3337C104.45 30.906 103.876 30.6921 103.192 30.6921C102.556 30.6921 101.988 30.8876 101.487 31.2787C100.986 31.6576 100.699 32.2442 100.625 33.0385ZM113.693 30.5821C114.28 29.5189 115.276 28.9873 116.681 28.9873C118.918 28.9873 120.036 30.2827 120.036 32.8735V38.8862H117.854V33.4051C117.854 33.0996 117.842 32.8369 117.818 32.6169C117.793 32.3847 117.744 32.1464 117.671 31.902C117.598 31.6576 117.494 31.462 117.359 31.3154C117.237 31.1565 117.054 31.0282 116.809 30.9304C116.577 30.8204 116.302 30.7654 115.985 30.7654C114.457 30.7654 113.693 31.7859 113.693 33.8268V38.8862H111.512V29.2073H113.693V30.5821ZM126.628 36.2465C126.628 36.6498 126.708 36.9309 126.867 37.0898C127.038 37.2486 127.288 37.3281 127.618 37.3281C127.863 37.3281 128.125 37.3036 128.407 37.2547L128.553 38.8862C128.113 38.9596 127.679 38.9962 127.252 38.9962C126.311 38.9962 125.608 38.7885 125.144 38.373C124.679 37.9452 124.447 37.2731 124.447 36.3565V30.7838H122.98V29.2073H124.447V26.6042H126.628V29.2073H128.608V30.7838H126.628V36.2465Z" fill="white"></path></g><defs><filter color-interpolation-filters="sRGB" filterunits="userSpaceOnUse" height="48.4895" id="filter0_d_314_6377" width="131.948" x="-1.90735e-06" y="0"><feflood flood-opacity="0" result="BackgroundImageFix"></feflood><fecolormatrix in="SourceAlpha" result="hardAlpha" type="matrix" values="0 0 0 0 0 0 0 0 0 0 0 0 0 0 0 0 0 0 127 0"></fecolormatrix><feoffset dy="1.35851"></feoffset><fegaussianblur stddeviation="0.679254"></fegaussianblur><fecomposite in2="hardAlpha" operator="out"></fecomposite><fecolormatrix type="matrix" values="0 0 0 0 0 0 0 0 0 0 0 0 0 0 0 0 0 0 0.25 0"></fecolormatrix><feblend in2="BackgroundImageFix" mode="normal" result="effect1_dropShadow_314_6377"></feblend><feblend in="SourceGraphic" in2="effect1_dropShadow_314_6377" mode="normal" result="shape"></feblend></filter><clippath id="clip0_314_6377"><rect fill="white" height="45.7723" transform="translate(1.35851)" width="129.231"></rect></clippath></defs></svg>